<svg width="32" height="32" viewBox="0 0 32 32" fill="none" xmlns="http://www.w3.org/2000/svg">
<path d="M20.4494 16C20.4494 19.0683 18.0348 21.5556 15.0562 21.5556H6.47077C6.24091 21.5556 6.11643 21.2783 6.2653 21.0979L10.3235 16.1799C10.4091 16.0762 10.4091 15.9238 10.3235 15.8201L6.2653 10.9021C6.11643 10.7217 6.24091 10.4445 6.47077 10.4445H15.0562C18.0348 10.4445 20.4494 12.9318 20.4494 16Z" fill="white"/>
<path d="M28 16C28 23.3638 22.2049 29.3334 15.0562 29.3334H4.26966C4.12073 29.3334 4 29.209 4 29.0556V25.7222C4 25.5688 4.12073 25.4445 4.26966 25.4445H15.0562C20.1198 25.4445 24.2247 21.216 24.2247 16C24.2247 10.784 20.1198 6.55558 15.0562 6.55558H4.26966C4.12073 6.55558 4 6.43121 4 6.2778V2.94446C4 2.79105 4.12073 2.66669 4.26966 2.66669H15.0562C22.2049 2.66669 28 8.63622 28 16Z" fill="white"/>
</svg>
