<svg width="513" height="512" viewBox="0 0 513 512" fill="none" xmlns="http://www.w3.org/2000/svg">
<path d="M504.782 193.13C504.168 190.728 503.528 188.344 502.862 185.977C502.326 184.122 501.765 182.273 501.179 180.429C500.31 177.641 499.389 174.871 498.418 172.119C494.999 162.459 490.941 153.054 486.243 143.902C484.209 139.923 482.053 135.996 479.774 132.121C469.027 113.889 455.642 96.7519 439.618 80.7108C401.4 42.4927 356.932 19.3427 306.214 11.2608C297.624 9.89338 288.849 8.95545 279.891 8.44705C274.667 8.14901 269.39 8 264.06 8C259.117 8 254.225 8.13148 249.387 8.39445C187.133 11.6202 133.514 35.7257 88.5287 80.7108C40.0548 129.185 15.8179 187.695 15.8179 256.242C15.8179 324.807 40.0548 383.326 88.5287 431.8C118.258 461.516 151.76 482.124 189.035 493.624C208.155 499.518 228.272 503.016 249.387 504.117C249.457 504.117 249.527 504.117 249.597 504.117C253.857 504.327 258.152 504.45 262.483 504.485C263.008 504.485 263.534 504.485 264.06 504.485C269.407 504.485 274.684 504.345 279.891 504.064C281.118 503.994 282.337 503.915 283.546 503.827C294.083 503.074 304.373 501.724 314.419 499.778C318.556 498.971 322.659 498.068 326.726 497.069C369.011 486.533 406.642 464.777 439.618 431.8C465.179 406.222 483.999 377.857 496.078 346.704C505.807 321.599 511.163 294.688 512.145 265.972C512.25 262.747 512.303 259.503 512.303 256.242C512.303 255.892 512.303 255.541 512.303 255.191C512.303 255.015 512.303 254.84 512.303 254.665C512.18 233.171 509.673 212.66 504.782 193.13Z" fill="#161616"/>
<path d="M489.267 193.13C488.653 190.728 488.013 188.344 487.347 185.977C486.811 184.122 486.25 182.273 485.664 180.429C484.794 177.641 483.874 174.871 482.903 172.119C479.484 162.459 475.426 153.054 470.727 143.902C468.694 139.923 466.537 135.996 464.258 132.121C453.512 113.889 440.127 96.7519 424.103 80.7108C385.885 42.4927 341.417 19.3427 290.699 11.2608C282.109 9.89338 273.334 8.95545 264.376 8.44705C259.152 8.14901 253.875 8 248.545 8C243.601 8 238.71 8.13148 233.872 8.39445C171.618 11.6202 117.999 35.7257 73.0136 80.7108C24.5397 129.185 0.302734 187.695 0.302734 256.242C0.302734 324.807 24.5397 383.326 73.0136 431.8C102.743 461.516 136.245 482.124 173.52 493.624C192.64 499.518 212.757 503.016 233.872 504.117C233.942 504.117 234.012 504.117 234.082 504.117C238.342 504.327 242.637 504.45 246.967 504.485C247.493 504.485 248.019 504.485 248.545 504.485C253.892 504.485 259.169 504.345 264.376 504.064C265.603 503.994 266.821 503.915 268.031 503.827C278.567 503.074 288.858 501.724 298.904 499.778C303.041 498.971 307.143 498.068 311.211 497.069C353.496 486.533 391.127 464.777 424.103 431.8C449.664 406.222 468.483 377.857 480.562 346.704C490.292 321.599 495.648 294.688 496.63 265.972C496.735 262.747 496.788 259.503 496.788 256.242C496.788 255.892 496.788 255.541 496.788 255.191C496.788 255.015 496.788 254.84 496.788 254.665C496.665 233.171 494.158 212.66 489.267 193.13Z" fill="#333333"/>
<path d="M254.718 395.37C257.775 388.141 259.303 380.574 259.303 372.669V314.338H200.972C193.067 314.338 185.5 315.866 178.271 318.923C171.295 321.877 165.116 326.047 159.736 331.432C154.35 336.812 150.181 342.991 147.227 349.968C144.17 357.196 142.642 364.763 142.642 372.669C142.642 380.574 144.17 388.141 147.227 395.37C150.181 402.346 154.35 408.527 159.736 413.912C165.116 419.293 171.295 423.46 178.271 426.414C185.495 429.471 193.062 430.999 200.972 430.999C208.878 430.999 216.445 429.471 223.673 426.414C230.65 423.46 236.831 419.293 242.216 413.912C247.597 408.527 251.764 402.346 254.718 395.37Z" fill="#039F63"/>
<path d="M178.271 202.255C171.295 205.209 165.116 209.379 159.736 214.764C154.35 220.144 150.181 226.323 147.227 233.3C144.17 240.528 142.642 248.095 142.642 256.001C142.642 263.906 144.17 271.473 147.227 278.702C150.181 285.678 154.35 291.859 159.736 297.244C165.116 302.63 171.295 306.799 178.271 309.753C185.5 312.81 193.067 314.338 200.972 314.338H259.303V197.67H200.972C193.067 197.67 185.5 199.198 178.271 202.255Z" fill="#6E00F9"/>
<path d="M178.271 85.5864C171.295 88.5404 165.116 92.71 159.736 98.0953C154.35 103.481 150.181 109.662 147.227 116.638C144.17 123.867 142.642 131.434 142.642 139.339C142.642 147.244 144.17 154.811 147.227 162.04C150.181 169.017 154.35 175.198 159.736 180.583C165.116 185.964 171.295 190.131 178.271 193.085C185.495 196.142 193.062 197.67 200.972 197.67H259.303V81H200.972C193.067 81 185.5 82.5283 178.271 85.585V85.5864Z" fill="#C22C00"/>
<path d="M358.884 98.0959C353.499 92.7106 347.318 88.5409 340.341 85.5869C333.113 82.5303 325.546 81.002 317.64 81.002H259.303V197.67H317.64C325.546 197.67 333.113 196.142 340.341 193.085C347.318 190.131 353.499 185.964 358.884 180.583C364.265 175.198 368.432 169.017 371.386 162.041C374.443 154.812 375.971 147.245 375.971 139.34C375.971 131.43 374.443 123.863 371.386 116.639C368.432 109.662 364.265 103.481 358.884 98.0959Z" fill="#DB1600"/>
<path d="M358.884 214.764C353.499 209.379 347.318 205.209 340.341 202.255C333.113 199.198 325.546 197.67 317.64 197.67C309.735 197.67 302.168 199.198 294.94 202.255C287.963 205.209 281.782 209.379 276.397 214.764C271.011 220.144 266.842 226.323 263.888 233.3C260.831 240.528 259.303 248.095 259.303 256.001C259.303 263.906 260.831 271.473 263.888 278.702C266.842 285.678 271.011 291.859 276.397 297.244C281.782 302.63 287.963 306.799 294.94 309.753C302.168 312.81 309.735 314.338 317.64 314.338C325.546 314.338 333.113 312.81 340.341 309.753C347.318 306.799 353.499 302.63 358.884 297.244C364.265 291.859 368.432 285.678 371.386 278.702C374.443 271.473 375.971 263.906 375.971 256.001C375.971 248.091 374.443 240.524 371.386 233.3C368.432 226.323 364.265 220.144 358.884 214.764Z" fill="#0190CA"/>
<path d="M247.772 395.37C250.828 388.141 252.357 380.574 252.357 372.669V314.338H194.026C186.121 314.338 178.554 315.866 171.325 318.923C164.349 321.877 158.17 326.047 152.789 331.432C147.404 336.812 143.234 342.991 140.28 349.968C137.224 357.196 135.695 364.763 135.695 372.669C135.695 380.574 137.224 388.141 140.28 395.37C143.234 402.346 147.404 408.527 152.789 413.912C158.17 419.293 164.349 423.46 171.325 426.414C178.549 429.471 186.116 430.999 194.026 430.999C201.931 430.999 209.498 429.471 216.727 426.414C223.704 423.46 229.885 419.293 235.27 413.912C240.65 408.527 244.818 402.346 247.772 395.37Z" fill="#0ACF83"/>
<path d="M171.325 202.255C164.349 205.209 158.17 209.379 152.789 214.764C147.404 220.144 143.234 226.323 140.28 233.3C137.224 240.528 135.695 248.095 135.695 256.001C135.695 263.906 137.224 271.473 140.28 278.702C143.234 285.678 147.404 291.859 152.789 297.244C158.17 302.63 164.349 306.799 171.325 309.753C178.554 312.81 186.121 314.338 194.026 314.338H252.357V197.67H194.026C186.121 197.67 178.554 199.198 171.325 202.255Z" fill="#A259FF"/>
<path d="M171.325 85.5864C164.349 88.5404 158.17 92.71 152.789 98.0953C147.404 103.481 143.234 109.662 140.28 116.638C137.224 123.867 135.695 131.434 135.695 139.339C135.695 147.244 137.224 154.811 140.28 162.04C143.234 169.017 147.404 175.198 152.789 180.583C158.17 185.964 164.349 190.131 171.325 193.085C178.549 196.142 186.116 197.67 194.026 197.67H252.357V81H194.026C186.121 81 178.554 82.5283 171.325 85.585V85.5864Z" fill="#F24E1E"/>
<path d="M351.938 98.0959C346.553 92.7106 340.372 88.5409 333.395 85.5869C326.166 82.5303 318.599 81.002 310.694 81.002H252.356V197.67H310.694C318.599 197.67 326.166 196.142 333.395 193.085C340.372 190.131 346.553 185.964 351.938 180.583C357.319 175.198 361.486 169.017 364.44 162.041C367.497 154.812 369.025 147.245 369.025 139.34C369.025 131.43 367.497 123.863 364.44 116.639C361.486 109.662 357.319 103.481 351.938 98.0959Z" fill="#FF7262"/>
<path d="M351.938 214.764C346.553 209.379 340.372 205.209 333.395 202.255C326.166 199.198 318.599 197.67 310.694 197.67C302.789 197.67 295.222 199.198 287.993 202.255C281.017 205.209 274.836 209.379 269.45 214.764C264.065 220.144 259.895 226.323 256.941 233.3C253.885 240.528 252.356 248.095 252.356 256.001C252.356 263.906 253.885 271.473 256.941 278.702C259.895 285.678 264.065 291.859 269.45 297.244C274.836 302.63 281.017 306.799 287.993 309.753C295.222 312.81 302.789 314.338 310.694 314.338C318.599 314.338 326.166 312.81 333.395 309.753C340.372 306.799 346.553 302.63 351.938 297.244C357.319 291.859 361.486 285.678 364.44 278.702C367.497 271.473 369.025 263.906 369.025 256.001C369.025 248.091 367.497 240.524 364.44 233.3C361.486 226.323 357.319 220.144 351.938 214.764Z" fill="#1ABCFE"/>
</svg>
