<svg width="513" height="512" viewBox="0 0 513 512" fill="none" xmlns="http://www.w3.org/2000/svg">
<path d="M504.782 193.13C504.168 190.728 503.528 188.344 502.862 185.977C502.326 184.122 501.765 182.273 501.179 180.429C500.31 177.641 499.389 174.871 498.418 172.119C494.999 162.459 490.941 153.054 486.243 143.902C484.209 139.923 482.053 135.996 479.774 132.121C469.027 113.889 455.642 96.7519 439.618 80.7108C401.4 42.4927 356.932 19.3427 306.214 11.2608C297.624 9.89338 288.849 8.95545 279.891 8.44705C274.667 8.14901 269.39 8 264.06 8C259.117 8 254.225 8.13148 249.387 8.39445C187.133 11.6202 133.514 35.7257 88.5287 80.7108C40.0548 129.185 15.8179 187.695 15.8179 256.242C15.8179 324.807 40.0548 383.326 88.5287 431.8C118.258 461.516 151.76 482.124 189.035 493.624C208.155 499.518 228.272 503.016 249.387 504.117C249.457 504.117 249.527 504.117 249.597 504.117C253.857 504.327 258.152 504.45 262.483 504.485C263.008 504.485 263.534 504.485 264.06 504.485C269.407 504.485 274.684 504.345 279.891 504.064C281.118 503.994 282.337 503.915 283.546 503.827C294.083 503.074 304.373 501.724 314.419 499.778C318.556 498.971 322.659 498.068 326.726 497.069C369.011 486.533 406.642 464.777 439.618 431.8C465.179 406.222 483.999 377.857 496.078 346.704C505.807 321.599 511.163 294.688 512.145 265.972C512.25 262.747 512.303 259.503 512.303 256.242C512.303 255.892 512.303 255.541 512.303 255.191C512.303 255.015 512.303 254.84 512.303 254.665C512.18 233.171 509.673 212.66 504.782 193.13Z" fill="#29559C"/>
<path d="M489.267 193.13C488.653 190.728 488.013 188.344 487.347 185.977C486.811 184.122 486.25 182.273 485.664 180.429C484.794 177.641 483.874 174.871 482.903 172.119C479.484 162.459 475.426 153.054 470.727 143.902C468.694 139.923 466.537 135.996 464.258 132.121C453.512 113.889 440.127 96.7519 424.103 80.7108C385.885 42.4927 341.417 19.3427 290.699 11.2608C282.109 9.89338 273.334 8.95545 264.376 8.44705C259.152 8.14901 253.875 8 248.545 8C243.601 8 238.71 8.13148 233.872 8.39445C171.618 11.6202 117.999 35.7257 73.0136 80.7108C24.5397 129.185 0.302734 187.695 0.302734 256.242C0.302734 324.807 24.5397 383.326 73.0136 431.8C102.743 461.516 136.245 482.124 173.52 493.624C192.64 499.518 212.757 503.016 233.872 504.117C233.942 504.117 234.012 504.117 234.082 504.117C238.342 504.327 242.637 504.45 246.967 504.485C247.493 504.485 248.019 504.485 248.545 504.485C253.892 504.485 259.169 504.345 264.376 504.064C265.603 503.994 266.821 503.915 268.031 503.827C278.567 503.074 288.858 501.724 298.904 499.778C303.041 498.971 307.143 498.068 311.211 497.069C353.496 486.533 391.127 464.777 424.103 431.8C449.664 406.222 468.483 377.857 480.562 346.704C490.292 321.599 495.648 294.688 496.63 265.972C496.735 262.747 496.788 259.503 496.788 256.242C496.788 255.892 496.788 255.541 496.788 255.191C496.788 255.015 496.788 254.84 496.788 254.665C496.665 233.171 494.158 212.66 489.267 193.13Z" fill="#3872D1"/>
<path d="M272.824 122.162L115.266 152.333V357.167L272.824 389.843V122.167M282.779 178.915V231.283L301.273 242.808C301.761 242.946 302.833 242.956 303.321 242.808L382.94 189.722C382.94 183.438 377.005 178.921 373.66 178.921H282.781M195.818 209.204C206.218 209.204 214.63 213.413 221.044 221.839C227.468 230.265 230.673 241.363 230.673 255.149C230.682 269.315 227.354 280.726 220.695 289.397C214.037 298.064 205.355 302.402 194.642 302.402C184.202 302.402 175.71 298.206 169.134 289.811C162.566 281.405 159.261 270.475 159.261 256.982C159.261 242.736 162.604 231.209 169.281 222.411C175.96 213.612 184.806 209.21 195.814 209.21M382.934 210.888C382.934 210.888 302.045 264.022 304.903 262.297C307.762 260.571 302.032 264.026 299.653 262.297L282.771 250.839V321.985H368.532C376.156 321.985 382.932 317.583 382.932 307.106V210.886M195.354 226.701C189.601 226.701 185.015 229.379 181.633 234.718C178.247 240.057 176.557 247.116 176.557 255.914C176.557 264.842 178.247 271.9 181.633 277.088C185.018 282.286 189.475 284.864 194.965 284.864C200.626 284.864 205.113 282.353 208.428 277.306C211.741 272.259 213.416 265.242 213.416 256.284C213.416 246.944 211.803 239.673 208.58 234.479C205.358 229.291 200.948 226.702 195.357 226.702" fill="white"/>
</svg>
