<svg width="513" height="512" viewBox="0 0 513 512" fill="none" xmlns="http://www.w3.org/2000/svg">
<path d="M504.782 193.13C504.168 190.728 503.528 188.344 502.862 185.977C502.326 184.122 501.765 182.273 501.179 180.429C500.31 177.641 499.389 174.871 498.418 172.119C494.999 162.459 490.941 153.054 486.243 143.902C484.209 139.923 482.053 135.996 479.774 132.121C469.027 113.889 455.642 96.7519 439.618 80.7108C401.4 42.4927 356.932 19.3427 306.214 11.2608C297.624 9.89338 288.849 8.95545 279.891 8.44705C274.667 8.14901 269.39 8 264.06 8C259.117 8 254.225 8.13148 249.387 8.39445C187.133 11.6202 133.514 35.7257 88.5287 80.7108C40.0548 129.185 15.8179 187.695 15.8179 256.242C15.8179 324.807 40.0548 383.326 88.5287 431.8C118.258 461.516 151.76 482.124 189.035 493.624C208.155 499.518 228.272 503.016 249.387 504.117C249.457 504.117 249.527 504.117 249.597 504.117C253.857 504.327 258.152 504.45 262.483 504.485C263.008 504.485 263.534 504.485 264.06 504.485C269.407 504.485 274.684 504.345 279.891 504.064C281.118 503.994 282.337 503.915 283.546 503.827C294.083 503.074 304.373 501.724 314.419 499.778C318.556 498.971 322.659 498.068 326.726 497.069C369.011 486.533 406.642 464.777 439.618 431.8C465.179 406.222 483.999 377.857 496.078 346.704C505.807 321.599 511.163 294.688 512.145 265.972C512.25 262.747 512.303 259.503 512.303 256.242C512.303 255.892 512.303 255.541 512.303 255.191C512.303 255.015 512.303 254.84 512.303 254.665C512.18 233.171 509.673 212.66 504.782 193.13Z" fill="#23543A"/>
<path d="M489.267 193.13C488.653 190.728 488.013 188.344 487.347 185.977C486.811 184.122 486.25 182.273 485.664 180.429C484.794 177.641 483.874 174.871 482.903 172.119C479.484 162.459 475.426 153.054 470.727 143.902C468.694 139.923 466.537 135.996 464.258 132.121C453.512 113.889 440.127 96.7519 424.103 80.7108C385.885 42.4927 341.417 19.3427 290.699 11.2608C282.109 9.89338 273.334 8.95545 264.376 8.44705C259.152 8.14901 253.875 8 248.545 8C243.601 8 238.71 8.13148 233.872 8.39445C171.618 11.6202 117.999 35.7257 73.0136 80.7108C24.5397 129.185 0.302734 187.695 0.302734 256.242C0.302734 324.807 24.5397 383.326 73.0136 431.8C102.743 461.516 136.245 482.124 173.52 493.624C192.64 499.518 212.757 503.016 233.872 504.117C233.942 504.117 234.012 504.117 234.082 504.117C238.342 504.327 242.637 504.45 246.967 504.485C247.493 504.485 248.019 504.485 248.545 504.485C253.892 504.485 259.169 504.345 264.376 504.064C265.603 503.994 266.821 503.915 268.031 503.827C278.567 503.074 288.858 501.724 298.904 499.778C303.041 498.971 307.143 498.068 311.211 497.069C353.496 486.533 391.127 464.777 424.103 431.8C449.664 406.222 468.483 377.857 480.562 346.704C490.292 321.599 495.648 294.688 496.63 265.972C496.735 262.747 496.788 259.503 496.788 256.242C496.788 255.892 496.788 255.541 496.788 255.191C496.788 255.015 496.788 254.84 496.788 254.665C496.665 233.171 494.158 212.66 489.267 193.13Z" fill="#449869"/>
<path d="M99.5 135.011V377.306H421.5V135H99.5M126.16 161.66H187.438V206.878H126.16V161.66ZM214.102 161.66H394.843V206.878H214.102V161.66ZM126.16 233.538H187.438V278.757H126.16V233.538ZM214.102 233.538H394.843V278.757H214.102V233.538ZM126.16 305.417H187.438V350.635H126.16V305.417ZM214.102 305.417H394.843V350.635H214.102V305.417Z" fill="#A3A3A3"/>
<path d="M90.5 135.011V377.306H412.5V135H90.5M117.16 161.66H178.438V206.878H117.16V161.66ZM205.102 161.66H385.843V206.878H205.102V161.66ZM117.16 233.538H178.438V278.757H117.16V233.538ZM205.102 233.538H385.843V278.757H205.102V233.538ZM117.16 305.417H178.438V350.635H117.16V305.417ZM205.102 305.417H385.843V350.635H205.102V305.417Z" fill="white"/>
</svg>
