<svg width="513" height="512" viewBox="0 0 513 512" fill="none" xmlns="http://www.w3.org/2000/svg">
<path d="M505.282 193.13C504.668 190.728 504.028 188.344 503.362 185.977C502.826 184.122 502.265 182.273 501.679 180.429C500.81 177.641 499.889 174.871 498.918 172.119C495.499 162.459 491.441 153.054 486.743 143.902C484.709 139.923 482.553 135.996 480.274 132.121C469.527 113.889 456.142 96.7519 440.118 80.7108C401.9 42.4927 357.432 19.3427 306.714 11.2608C298.124 9.89338 289.349 8.95545 280.391 8.44705C275.167 8.14901 269.89 8 264.56 8C259.617 8 254.725 8.13148 249.887 8.39445C187.633 11.6202 134.014 35.7257 89.0287 80.7108C40.5548 129.185 16.3179 187.695 16.3179 256.242C16.3179 324.807 40.5548 383.326 89.0287 431.8C118.758 461.516 152.26 482.124 189.535 493.624C208.655 499.518 228.772 503.016 249.887 504.117C249.957 504.117 250.027 504.117 250.097 504.117C254.357 504.327 258.652 504.45 262.983 504.485C263.508 504.485 264.034 504.485 264.56 504.485C269.907 504.485 275.184 504.345 280.391 504.064C281.618 503.994 282.837 503.915 284.046 503.827C294.583 503.074 304.873 501.724 314.919 499.778C319.056 498.971 323.159 498.068 327.226 497.069C369.511 486.533 407.142 464.777 440.118 431.8C465.679 406.222 484.499 377.857 496.578 346.704C506.307 321.599 511.663 294.688 512.645 265.972C512.75 262.747 512.803 259.503 512.803 256.242C512.803 255.892 512.803 255.541 512.803 255.191C512.803 255.015 512.803 254.84 512.803 254.665C512.68 233.171 510.173 212.66 505.282 193.13Z" fill="#161616"/>
<path d="M489.767 193.13C489.153 190.728 488.513 188.344 487.847 185.977C487.311 184.122 486.75 182.273 486.164 180.429C485.294 177.641 484.374 174.871 483.403 172.119C479.984 162.459 475.926 153.054 471.227 143.902C469.194 139.923 467.037 135.996 464.758 132.121C454.012 113.889 440.627 96.7519 424.603 80.7108C386.385 42.4927 341.917 19.3427 291.199 11.2608C282.609 9.89338 273.834 8.95545 264.876 8.44705C259.652 8.14901 254.375 8 249.045 8C244.101 8 239.21 8.13148 234.372 8.39445C172.118 11.6202 118.499 35.7257 73.5136 80.7108C25.0397 129.185 0.802734 187.695 0.802734 256.242C0.802734 324.807 25.0397 383.326 73.5136 431.8C103.243 461.516 136.745 482.124 174.02 493.624C193.14 499.518 213.257 503.016 234.372 504.117C234.442 504.117 234.512 504.117 234.582 504.117C238.842 504.327 243.137 504.45 247.467 504.485C247.993 504.485 248.519 504.485 249.045 504.485C254.392 504.485 259.669 504.345 264.876 504.064C266.103 503.994 267.321 503.915 268.531 503.827C279.067 503.074 289.358 501.724 299.404 499.778C303.541 498.971 307.643 498.068 311.711 497.069C353.996 486.533 391.627 464.777 424.603 431.8C450.164 406.222 468.983 377.857 481.062 346.704C490.792 321.599 496.148 294.688 497.13 265.972C497.235 262.747 497.288 259.503 497.288 256.242C497.288 255.892 497.288 255.541 497.288 255.191C497.288 255.015 497.288 254.84 497.288 254.665C497.165 233.171 494.658 212.66 489.767 193.13Z" fill="#333333"/>
<path d="M386.4 186.51V129.39C386.4 126.243 384.661 123.342 381.888 121.859C379.104 120.366 375.744 120.536 373.12 122.275L330.805 150.478C321.333 147.843 311.349 146.435 301.045 146.435H215.712C205.397 146.435 195.424 147.843 185.952 150.467L143.637 122.254C141.013 120.504 137.643 120.344 134.869 121.827C132.085 123.31 130.357 126.2 130.357 129.347V186.456C114.373 205.678 104.757 230.382 104.757 257.336C104.757 318.595 154.421 368.27 215.691 368.27H216.565C207.403 377.23 201.12 389.123 199.232 402.424C199.019 402.414 198.816 402.392 198.613 402.392H177.152C168.032 402.392 159.463 398.84 153.013 392.387L126.805 366.179C117.131 356.504 104.277 351.182 90.5919 351.182H79.1253C69.6959 351.182 62.0586 358.819 62.0586 368.248C62.0586 377.667 69.6959 385.315 79.1253 385.315H90.5813C95.1359 385.315 99.4239 387.086 102.645 390.307L128.843 416.504C141.728 429.39 158.881 436.494 177.109 436.494H198.56V470.627C198.56 479.907 194.837 488.335 188.821 494.488C210.805 501.155 234.123 504.75 258.283 504.75C258.283 504.75 307.5 500 327.744 492.44C321.717 486.285 318.005 479.896 318.005 470.606V410.872C318.005 394.147 311.125 379.043 300.053 368.206H300.928C362.187 368.206 411.861 318.531 411.861 257.272C411.861 230.318 402.24 205.603 386.261 186.382L386.4 186.51Z" fill="#A6C5D9"/>
<path d="M378.933 186.51V129.39C378.933 126.243 377.195 123.342 374.421 121.859C371.637 120.366 368.277 120.536 365.653 122.275L323.339 150.478C313.867 147.843 303.883 146.435 293.579 146.435H208.245C197.931 146.435 187.957 147.843 178.485 150.467L136.171 122.254C133.547 120.504 130.176 120.344 127.403 121.827C124.619 123.31 122.891 126.2 122.891 129.347V186.456C106.907 205.678 97.2907 230.382 97.2907 257.336C97.2907 318.595 146.955 368.27 208.224 368.27H209.099C199.936 377.23 193.653 389.123 191.765 402.424C191.552 402.414 191.349 402.392 191.147 402.392H169.685C160.565 402.392 151.997 398.84 145.547 392.387L119.339 366.179C109.664 356.504 96.8107 351.182 83.1254 351.182H71.6587C62.2294 351.182 54.592 358.819 54.592 368.248C54.592 377.667 62.2294 385.315 71.6587 385.315H83.1147C87.6694 385.315 91.9574 387.086 95.1787 390.307L121.376 416.504C134.261 429.39 151.414 436.494 169.643 436.494H191.093V470.627C191.093 479.907 187.371 489.596 181.355 495.75C203.339 502.417 226.656 504.75 250.816 504.75C274.976 504.75 298.293 501.417 320.277 494.75C314.251 488.595 310.539 479.896 310.539 470.606V410.872C310.539 394.147 303.659 379.043 292.587 368.206H293.461C354.72 368.206 404.395 318.531 404.395 257.272C404.395 230.318 394.773 205.603 378.795 186.382L378.933 186.51Z" fill="#D7E6F0"/>
</svg>
