<svg width="513" height="512" viewBox="0 0 513 512" fill="none" xmlns="http://www.w3.org/2000/svg">
<path d="M504.782 193.13C504.168 190.728 503.528 188.344 502.862 185.977C502.326 184.122 501.765 182.273 501.179 180.429C500.31 177.641 499.389 174.871 498.418 172.119C494.999 162.459 490.941 153.054 486.243 143.902C484.209 139.923 482.053 135.996 479.774 132.121C469.027 113.889 455.642 96.7519 439.618 80.7108C401.4 42.4927 356.932 19.3427 306.214 11.2608C297.624 9.89338 288.849 8.95545 279.891 8.44705C274.667 8.14901 269.39 8 264.06 8C259.117 8 254.225 8.13148 249.387 8.39445C187.133 11.6202 133.514 35.7257 88.5287 80.7108C40.0548 129.185 15.8179 187.695 15.8179 256.242C15.8179 324.807 40.0548 383.326 88.5287 431.8C118.258 461.516 151.76 482.124 189.035 493.624C208.155 499.518 228.272 503.016 249.387 504.117C249.457 504.117 249.527 504.117 249.597 504.117C253.857 504.327 258.152 504.45 262.483 504.485C263.008 504.485 263.534 504.485 264.06 504.485C269.407 504.485 274.684 504.345 279.891 504.064C281.118 503.994 282.337 503.915 283.546 503.827C294.083 503.074 304.373 501.724 314.419 499.778C318.556 498.971 322.659 498.068 326.726 497.069C369.011 486.533 406.642 464.777 439.618 431.8C465.179 406.222 483.999 377.857 496.078 346.704C505.807 321.599 511.163 294.688 512.145 265.972C512.25 262.747 512.303 259.503 512.303 256.242C512.303 255.892 512.303 255.541 512.303 255.191C512.303 255.015 512.303 254.84 512.303 254.665C512.18 233.171 509.673 212.66 504.782 193.13Z" fill="#989898"/>
<path d="M489.267 193.13C488.653 190.728 488.013 188.344 487.347 185.977C486.811 184.122 486.25 182.273 485.664 180.429C484.794 177.641 483.874 174.871 482.903 172.119C479.484 162.459 475.426 153.054 470.727 143.902C468.694 139.923 466.537 135.996 464.258 132.121C453.512 113.889 440.127 96.7519 424.103 80.7108C385.885 42.4927 341.417 19.3427 290.699 11.2608C282.109 9.89338 273.334 8.95545 264.376 8.44705C259.152 8.14901 253.875 8 248.545 8C243.601 8 238.71 8.13148 233.872 8.39445C171.618 11.6202 117.999 35.7257 73.0136 80.7108C24.5397 129.185 0.302734 187.695 0.302734 256.242C0.302734 324.807 24.5397 383.326 73.0136 431.8C102.743 461.516 136.245 482.124 173.52 493.624C192.64 499.518 212.757 503.016 233.872 504.117C233.942 504.117 234.012 504.117 234.082 504.117C238.342 504.327 242.637 504.45 246.967 504.485C247.493 504.485 248.019 504.485 248.545 504.485C253.892 504.485 259.169 504.345 264.376 504.064C265.603 503.994 266.821 503.915 268.031 503.827C278.567 503.074 288.858 501.724 298.904 499.778C303.041 498.971 307.143 498.068 311.211 497.069C353.496 486.533 391.127 464.777 424.103 431.8C449.664 406.222 468.483 377.857 480.562 346.704C490.292 321.599 495.648 294.688 496.63 265.972C496.735 262.747 496.788 259.503 496.788 256.242C496.788 255.892 496.788 255.541 496.788 255.191C496.788 255.015 496.788 254.84 496.788 254.665C496.665 233.171 494.158 212.66 489.267 193.13Z" fill="#F1F1F1"/>
<path d="M87.0042 187.51L87.0042 362.506C87.0042 376.311 98.1914 387.506 112.004 387.506H162.003C165.448 387.506 168.252 384.701 168.252 381.256V187.51H87.0042Z" fill="#2768A9"/>
<path d="M147.433 132.828C140.597 127.547 132.52 125.008 124.504 125.023V125H99.5043C88.2936 125 77.2079 130.001 69.8252 139.555C64.5363 146.391 61.9988 154.469 62.0059 162.49L61.998 162.482V187.482L143.246 250.352H168.246V148.899L147.426 132.805L147.433 132.828Z" fill="#980A06"/>
<path d="M330.749 148.924L249.501 211.704L168.253 148.916H143.253V250.367L227.358 315.444C230.115 317.577 233.506 318.733 236.998 318.733C240.482 318.733 258.505 318.733 261.998 318.733C265.482 318.733 268.88 317.569 271.638 315.436L355.743 250.352V148.893H330.743L330.749 148.924Z" fill="#AE0500"/>
<path d="M436.987 162.51C436.987 154.487 434.448 146.409 429.167 139.575C421.784 130.013 410.699 125.013 399.488 125.016V125H374.489V125.016C366.473 125 358.394 127.531 351.559 132.812L330.74 148.898V250.346H355.739L436.987 187.475V162.476H436.979L436.987 162.51Z" fill="#E48900"/>
<path d="M436.998 187.51V362.506C436.998 376.311 425.802 387.506 411.998 387.506H361.999C358.546 387.506 355.749 384.701 355.749 381.256V187.51H436.998Z" fill="#31741A"/>
<path d="M62.0049 187.51L62.0049 362.506C62.0049 376.311 73.1921 387.506 87.0044 387.506H137.003C140.449 387.506 143.253 384.701 143.253 381.256V187.51H62.0049Z" fill="#64AFE1"/>
<path d="M411.998 187.51V362.506C411.998 376.311 400.803 387.506 386.999 387.506H337C333.547 387.506 330.75 384.701 330.75 381.256V187.51H411.998Z" fill="#5FAA46"/>
<path d="M237.001 221.367L143.253 148.923V250.374L227.358 315.451C230.115 317.584 233.506 318.74 236.998 318.74C240.482 318.74 243.881 317.576 246.638 315.443L330.743 250.359V148.893L236.995 221.329L237.001 221.367Z" fill="#F04B37"/>
<path d="M143.253 148.924L122.433 132.83C106.043 120.166 82.4888 123.182 69.825 139.572C64.5361 146.408 62.0049 154.486 62.0127 162.501L62.0049 162.494V187.493L143.253 250.359V148.9V148.924Z" fill="#E1322D"/>
<path d="M404.168 139.577C391.504 123.187 367.95 120.163 351.559 132.827L330.74 148.913V250.367L411.988 187.496V162.497H411.98C411.98 154.474 409.441 146.396 404.16 139.56L404.168 139.577Z" fill="#FFD205"/>
</svg>
