<svg width="513" height="512" viewBox="0 0 513 512" fill="none" xmlns="http://www.w3.org/2000/svg">
<path d="M504.782 193.13C504.168 190.728 503.528 188.344 502.862 185.977C502.326 184.122 501.765 182.273 501.179 180.429C500.31 177.641 499.389 174.871 498.418 172.119C494.999 162.459 490.941 153.054 486.243 143.902C484.209 139.923 482.053 135.996 479.774 132.121C469.027 113.889 455.642 96.7519 439.618 80.7108C401.4 42.4927 356.932 19.3427 306.214 11.2608C297.624 9.89338 288.849 8.95545 279.891 8.44705C274.667 8.14901 269.39 8 264.06 8C259.117 8 254.225 8.13148 249.387 8.39445C187.133 11.6202 133.514 35.7257 88.5287 80.7108C40.0548 129.185 15.8179 187.695 15.8179 256.242C15.8179 324.807 40.0548 383.326 88.5287 431.8C118.258 461.516 151.76 482.124 189.035 493.624C208.155 499.518 228.272 503.016 249.387 504.117C249.457 504.117 249.527 504.117 249.597 504.117C253.857 504.327 258.152 504.45 262.483 504.485C263.008 504.485 263.534 504.485 264.06 504.485C269.407 504.485 274.684 504.345 279.891 504.064C281.118 503.994 282.337 503.915 283.546 503.827C294.083 503.074 304.373 501.724 314.419 499.778C318.556 498.971 322.659 498.068 326.726 497.069C369.011 486.533 406.642 464.777 439.618 431.8C465.179 406.222 483.999 377.857 496.078 346.704C505.807 321.599 511.163 294.688 512.145 265.972C512.25 262.747 512.303 259.503 512.303 256.242C512.303 255.892 512.303 255.541 512.303 255.191C512.303 255.015 512.303 254.84 512.303 254.665C512.18 233.171 509.673 212.66 504.782 193.13Z" fill="#BA0500"/>
<path d="M489.267 193.13C488.653 190.728 488.013 188.344 487.347 185.977C486.811 184.122 486.25 182.273 485.664 180.429C484.794 177.641 483.874 174.871 482.903 172.119C479.484 162.459 475.426 153.054 470.727 143.902C468.694 139.923 466.537 135.996 464.258 132.121C453.512 113.889 440.127 96.7519 424.103 80.7108C385.885 42.4927 341.417 19.3427 290.699 11.2608C282.109 9.89338 273.334 8.95545 264.376 8.44705C259.152 8.14901 253.875 8 248.545 8C243.601 8 238.71 8.13148 233.872 8.39445C171.618 11.6202 117.999 35.7257 73.0136 80.7108C24.5397 129.185 0.302734 187.695 0.302734 256.242C0.302734 324.807 24.5397 383.326 73.0136 431.8C102.743 461.516 136.245 482.124 173.52 493.624C192.64 499.518 212.757 503.016 233.872 504.117C233.942 504.117 234.012 504.117 234.082 504.117C238.342 504.327 242.637 504.45 246.967 504.485C247.493 504.485 248.019 504.485 248.545 504.485C253.892 504.485 259.169 504.345 264.376 504.064C265.603 503.994 266.821 503.915 268.031 503.827C278.567 503.074 288.858 501.724 298.904 499.778C303.041 498.971 307.143 498.068 311.211 497.069C353.496 486.533 391.127 464.777 424.103 431.8C449.664 406.222 468.483 377.857 480.562 346.704C490.292 321.599 495.648 294.688 496.63 265.972C496.735 262.747 496.788 259.503 496.788 256.242C496.788 255.892 496.788 255.541 496.788 255.191C496.788 255.015 496.788 254.84 496.788 254.665C496.665 233.171 494.158 212.66 489.267 193.13Z" fill="#E44332"/>
<path d="M114.309 243.332C122.965 238.277 308.915 130.216 313.166 127.712C317.417 125.239 317.648 117.634 312.857 114.882C308.096 112.146 299.053 106.953 295.699 104.959C290.91 102.324 285.203 103.032 279.869 103.032C277.489 104.423 119.101 198.815 113.799 201.845C107.415 205.492 99.5786 205.554 93.2411 201.845L26.483 162.668H18.0515L15.4449 198.062C38.4653 211.616 82.4788 240.139 93.6878 246.546C103.385 246.546 107.214 247.459 114.325 243.332" fill="#B9B9B9"/>
<path d="M114.309 322.482C122.965 317.428 308.915 209.366 313.166 206.862C317.416 204.389 317.648 196.784 312.857 194.033C308.096 191.297 299.053 186.103 295.699 184.109C290.91 181.475 285.203 182.108 279.869 182.108C277.489 183.499 119.101 277.966 113.799 280.995C107.415 284.643 99.5785 284.705 93.2411 280.995L10.0972 232H1.56616L9.5155 273.607C9.5155 273.607 80.4139 318.543 92.7178 325.576C102.415 325.091 107.214 326.609 114.325 322.482" fill="#B9B9B9"/>
<path d="M114.309 406.574C122.965 401.52 308.915 293.458 313.166 290.954C317.416 288.481 317.648 280.876 312.856 278.125C308.096 275.389 299.053 270.195 295.699 268.201C290.91 265.566 285.202 266.421 279.869 266.422C277.489 267.813 119.101 362.057 113.799 365.087C107.415 368.735 99.5783 368.797 93.2409 365.087L16.7976 320.241H7.86914L38.4148 374.813C60.1613 387.589 84.6519 404.843 92.7176 409.454C101.445 409.454 107.214 410.701 114.324 406.574" fill="#B9B9B9"/>
<path d="M105.581 243.33C114.237 238.275 300.187 130.214 304.438 127.71C308.689 125.237 308.921 117.632 304.129 114.88C299.368 112.145 290.326 106.951 286.971 104.957C282.182 102.322 276.362 102.393 271.638 105.142C269.257 106.534 110.373 198.813 105.071 201.843C98.6875 205.49 90.8507 205.552 84.5132 201.843L17.7551 162.666C12.2327 174.787 9.32358 182.544 6.71704 198.06C29.7374 211.614 72.9024 236.969 84.1114 243.376C91.4535 247.549 98.4865 247.457 105.597 243.33" fill="white"/>
<path d="M105.581 322.482C114.237 317.428 300.187 209.366 304.438 206.862C308.689 204.389 308.921 196.784 304.129 194.033C299.368 191.297 290.326 186.103 286.971 184.109C282.182 181.474 276.362 181.545 271.638 184.295C269.257 185.686 110.373 277.965 105.071 280.995C98.6876 284.643 90.8508 284.705 84.5134 280.995L1.3695 232C0.111413 238.303 0.111727 272.242 0.787775 273.606C0.787775 273.606 71.8076 315.495 84.1115 322.528C91.4536 326.702 98.4866 326.609 105.597 322.482" fill="white"/>
<path d="M105.582 406.574C114.238 401.519 300.187 293.458 304.438 290.954C308.689 288.481 308.921 280.876 304.129 278.125C299.368 275.389 290.326 270.195 286.972 268.201C282.182 265.566 276.362 265.637 271.638 268.387C269.258 269.778 110.373 362.057 105.071 365.087C98.6877 368.735 90.8509 368.796 84.5135 365.087L8.07019 320.241C14.6568 346.423 21.4447 359.999 29.6874 374.813C51.4339 387.588 76.0459 402.01 84.1116 406.62C91.4537 410.794 98.4867 410.701 105.597 406.574" fill="white"/>
</svg>
